<mxfile host="app.diagrams.net" modified="2021-08-11T06:42:24.857Z" agent="5.0 (Macintosh; Intel Mac OS X 10_15_7) AppleWebKit/537.36 (KHTML, like Gecko) Chrome/92.0.4515.131 Safari/537.36" etag="bgeXPWnJvJ7uWQP8u7aA" version="14.6.13" type="github">
  <diagram id="3228e29e-7158-1315-38df-8450db1d8a1d" name="Page-1">
    <mxGraphModel dx="466" dy="832" grid="1" gridSize="10" guides="1" tooltips="1" connect="1" arrows="1" fold="1" page="1" pageScale="1" pageWidth="1169" pageHeight="827" background="none" math="0" shadow="0">
      <root>
        <mxCell id="0" />
        <mxCell id="1" parent="0" />
        <mxCell id="dKWHJv7x2FfMzqPXW4Y6-21572" value="生产(3)" style="ellipse;whiteSpace=wrap;opacity=60;html=1;fontSize=15;fontColor=#FFFFFF;fillColor=#97D077;" parent="1" vertex="1">
          <mxGeometry x="730" y="429.2" width="80" height="210.8" as="geometry" />
        </mxCell>
        <mxCell id="21560" value="市场(2)" style="ellipse;whiteSpace=wrap;rotation=0;fillColor=#f08705;opacity=60;html=1;gradientColor=none;fontSize=15;fontColor=#FFFFFF;" parent="1" vertex="1">
          <mxGeometry x="406" y="240" width="357.5" height="130" as="geometry" />
        </mxCell>
        <mxCell id="21562" value="硬件产品(6)" style="ellipse;whiteSpace=wrap;opacity=60;html=1;fontSize=15;fontColor=#FFFFFF;fillColor=#33FF99;align=center;" parent="1" vertex="1">
          <mxGeometry x="540" y="329.52" width="360" height="130.9" as="geometry" />
        </mxCell>
        <mxCell id="dKWHJv7x2FfMzqPXW4Y6-21568" value="软件产品(7)" style="ellipse;whiteSpace=wrap;fillColor=#2f5b7c;opacity=60;html=1;fontSize=15;fontColor=#FFFFFF;align=center;" parent="1" vertex="1">
          <mxGeometry x="210" y="323" width="400" height="137.42" as="geometry" />
        </mxCell>
        <mxCell id="21563" value="UI(3)" style="ellipse;whiteSpace=wrap;opacity=60;html=1;fontSize=15;fontColor=#FFFFFF;fillColor=#12AAB5;" parent="1" vertex="1">
          <mxGeometry x="307.5" y="430" width="72.5" height="210" as="geometry" />
        </mxCell>
        <mxCell id="21564" value="UE(3)" style="ellipse;whiteSpace=wrap;rotation=0;fillColor=#736ca8;opacity=60;html=1;fontSize=15;fontColor=#FFFFFF;" parent="1" vertex="1">
          <mxGeometry x="250" y="430" width="70" height="210" as="geometry" />
        </mxCell>
        <mxCell id="dKWHJv7x2FfMzqPXW4Y6-21564" value="后端(5)" style="ellipse;whiteSpace=wrap;rotation=0;opacity=60;html=1;fontSize=15;fontColor=#FFFFFF;fillColor=#D4E1F5;" parent="1" vertex="1">
          <mxGeometry x="470" y="432.13" width="110" height="207.87" as="geometry" />
        </mxCell>
        <mxCell id="dKWHJv7x2FfMzqPXW4Y6-21565" value="前端(6)" style="ellipse;whiteSpace=wrap;rotation=0;opacity=60;html=1;fontSize=15;fontColor=#FFFFFF;fillColor=#FFD966;align=center;" parent="1" vertex="1">
          <mxGeometry x="250" y="410" width="310" height="90" as="geometry" />
        </mxCell>
        <mxCell id="dKWHJv7x2FfMzqPXW4Y6-21567" value="运维(3)" style="ellipse;whiteSpace=wrap;rotation=30;opacity=60;html=1;fontSize=15;fontColor=#FFFFFF;fillColor=#EA6B66;" parent="1" vertex="1">
          <mxGeometry x="398.5" y="450.67" width="84" height="200" as="geometry" />
        </mxCell>
        <mxCell id="dKWHJv7x2FfMzqPXW4Y6-21569" value="硬件(4)" style="ellipse;whiteSpace=wrap;opacity=60;html=1;fontSize=15;fontColor=#FFFFFF;fillColor=#007FFF;" parent="1" vertex="1">
          <mxGeometry x="650" y="432.13" width="100" height="210" as="geometry" />
        </mxCell>
        <mxCell id="dKWHJv7x2FfMzqPXW4Y6-21571" value="软件(4)" style="ellipse;whiteSpace=wrap;opacity=60;html=1;fontSize=15;fontColor=#FFFFFF;fillColor=#CDA2BE;" parent="1" vertex="1">
          <mxGeometry x="560" y="432.13" width="120" height="210" as="geometry" />
        </mxCell>
        <mxCell id="dKWHJv7x2FfMzqPXW4Y6-21566" value="测试(9)" style="ellipse;whiteSpace=wrap;rotation=0;opacity=60;html=1;fontSize=15;fontColor=#FFFFFF;fillColor=#FFB570;horizontal=1;verticalAlign=middle;" parent="1" vertex="1">
          <mxGeometry x="450" y="410" width="350" height="90" as="geometry" />
        </mxCell>
      </root>
    </mxGraphModel>
  </diagram>
</mxfile>
